# xmcd
#
# Track frame offsets: 
#        150
#        14722
#        27423
#        40587
#        57141
#        72575
#        84819
#        99980
#        112816
#        132368
#        145140
#        166310
#        182370
#        192285
#        201024
#        211379
#        221433
#
# Disc length: 3003 seconds
#
# Revision: 1
# Processed by: cddbd v1.5.2PL0 Copyright (c) Steve Scherf et al.
# Submitted via: ExactAudioCopy v1.1
#
DISCID=e60bb911
DTITLE=Highwaymen - The Road Goes On Forever
DYEAR=2005
DGENRE=Country
TTITLE0=The Devil's Right Hand
TTITLE1=Live Forever
TTITLE2=Everyone Gets Crazy
TTITLE3=It Is What It Is
TTITLE4=I Do Believe
TTITLE5=The End of Understanding
TTITLE6=True Love Travels A Gravel Road
TTITLE7=Death And Hell
TTITLE8=Waiting For A Long Time
TTITLE9=Here Comes That Rainbow Again
TTITLE10=The Road Goes On Forever
TTITLE11=If He Came Back Again
TTITLE12=Live Forever - Johnny Cash
TTITLE13=I Ain't Song - Waylon Jennings
TTITLE14=Pick Up The Tempo - Willie Nelson
TTITLE15=Closer To The Bone - Kris Kristofferson
TTITLE16=Back In The Saddle Again
EXTD=
EXTT0=
EXTT1=
EXTT2=
EXTT3=
EXTT4=
EXTT5=
EXTT6=
EXTT7=
EXTT8=
EXTT9=
EXTT10=
EXTT11=
EXTT12=
EXTT13=
EXTT14=
EXTT15=
EXTT16=
PLAYORDER=
